<svg xmlns="http://www.w3.org/2000/svg" viewBox="0 0 1200 760" role="img" aria-label="ACICORP registration and community coordination visual">
  <defs>
    <linearGradient id="sky" x1="0" x2="1" y1="0" y2="1"><stop offset="0" stop-color="#dbeafe"/><stop offset="0.55" stop-color="#f8fafc"/><stop offset="1" stop-color="#fef3c7"/></linearGradient>
    <linearGradient id="blue" x1="0" x2="1"><stop offset="0" stop-color="#0f172a"/><stop offset="1" stop-color="#1d4ed8"/></linearGradient>
    <filter id="shadow"><feDropShadow dx="0" dy="22" stdDeviation="24" flood-color="#0f172a" flood-opacity="0.22"/></filter>
  </defs>
  <rect width="1200" height="760" rx="44" fill="url(#sky)"/>
  <path d="M0 560 C180 500 360 545 520 505 C720 455 890 500 1200 430 L1200 760 L0 760Z" fill="#bfdbfe" opacity="0.55"/>
  <path d="M0 610 C230 560 370 610 560 570 C770 525 930 580 1200 520 L1200 760 L0 760Z" fill="#93c5fd" opacity="0.40"/>
  <g filter="url(#shadow)">
    <rect x="125" y="135" width="950" height="500" rx="38" fill="#ffffff" opacity="0.86"/>
  </g>
  <g transform="translate(165 170)">
    <rect x="0" y="0" width="340" height="360" rx="28" fill="url(#blue)" opacity="0.95"/>
    <circle cx="160" cy="112" r="54" fill="#f8fafc" opacity="0.95"/>
    <path d="M70 285 C85 205 120 170 160 170 C205 170 242 207 255 285Z" fill="#f8fafc" opacity="0.95"/>
    <text x="32" y="324" font-family="Arial, Helvetica, sans-serif" font-size="24" font-weight="700" fill="#ffffff">ACICORPINC</text>
  </g>
  <g transform="translate(560 180)">
    <text x="0" y="0" font-family="Arial, Helvetica, sans-serif" font-size="42" font-weight="800" fill="#0f172a">Structured Registration</text>
    <text x="0" y="56" font-family="Arial, Helvetica, sans-serif" font-size="25" fill="#334155">Coordination • Responsibility • Follow-up</text>
    <g transform="translate(0 105)">
      <rect x="0" y="0" width="420" height="72" rx="18" fill="#eff6ff"/>
      <circle cx="38" cy="36" r="18" fill="#1d4ed8"/><path d="M30 36 l6 7 l13 -17" fill="none" stroke="#fff" stroke-width="5" stroke-linecap="round" stroke-linejoin="round"/>
      <text x="78" y="44" font-family="Arial, Helvetica, sans-serif" font-size="24" font-weight="700" fill="#172554">Professional intake</text>
    </g>
    <g transform="translate(0 195)">
      <rect x="0" y="0" width="420" height="72" rx="18" fill="#f0fdf4"/>
      <circle cx="38" cy="36" r="18" fill="#15803d"/><path d="M30 36 l6 7 l13 -17" fill="none" stroke="#fff" stroke-width="5" stroke-linecap="round" stroke-linejoin="round"/>
      <text x="78" y="44" font-family="Arial, Helvetica, sans-serif" font-size="24" font-weight="700" fill="#14532d">Human validation</text>
    </g>
    <g transform="translate(0 285)">
      <rect x="0" y="0" width="420" height="72" rx="18" fill="#fff7ed"/>
      <circle cx="38" cy="36" r="18" fill="#c2410c"/><path d="M30 36 l6 7 l13 -17" fill="none" stroke="#fff" stroke-width="5" stroke-linecap="round" stroke-linejoin="round"/>
      <text x="78" y="44" font-family="Arial, Helvetica, sans-serif" font-size="24" font-weight="700" fill="#7c2d12">Mission readiness</text>
    </g>
  </g>
</svg>