<svg xmlns="http://www.w3.org/2000/svg" viewBox="0 0 1600 900"><defs><linearGradient id="g" x1="0" x2="1"><stop stop-color="#06275f"/><stop offset="1" stop-color="#0b3d91"/></linearGradient></defs><rect width="1600" height="900" fill="url(#g)"/><circle cx="1280" cy="170" r="190" fill="#d8a31a" opacity=".35"/><circle cx="230" cy="760" r="280" fill="#2f855a" opacity=".22"/><path d="M0 660 C260 560 420 720 690 600 C930 494 1110 550 1600 410 L1600 900 L0 900 Z" fill="#ffffff" opacity=".12"/><g fill="#fff" opacity=".9"><circle cx="520" cy="395" r="58"/><circle cx="715" cy="360" r="58"/><circle cx="910" cy="395" r="58"/><path d="M410 650c22-118 88-184 110-184s88 66 110 184zM605 650c22-118 88-184 110-184s88 66 110 184zM800 650c22-118 88-184 110-184s88 66 110 184z"/></g><text x="80" y="130" font-family="Arial" font-size="44" font-weight="700" fill="#fff" opacity=".92">Dignity • Service • Hope</text></svg>